# xmcd
#
# Track frame offsets: 
#        150
#        13017
#        25065
#        45117
#        57431
#        75834
#        85690
#        100692
#        121641
#        138376
#
# Disc length: 2063 seconds
#
# Revision: 0
# Processed by: cddbd v1.5.2PL0 Copyright (c) Steve Scherf et al.
# Submitted via: ExactAudioCopy v0.95b4
#
DISCID=61080d0a
DTITLE=Dennis marsh - The great Dennis marsh
DYEAR=2003
DGENRE=Country
TTITLE0=Eighteen yellow roses
TTITLE1=Hobo in a silk shirt
TTITLE2=He'll have to go
TTITLE3=Blue Hawaii
TTITLE4=Easy
TTITLE5=Maringi noa
TTITLE6=Blue eyes crying in the rain
TTITLE7=Walking in the sun
TTITLE8=The Ghetto
TTITLE9=Storms never last
EXTD=
EXTT0=
EXTT1=
EXTT2=
EXTT3=
EXTT4=
EXTT5=
EXTT6=
EXTT7=
EXTT8=
EXTT9=
PLAYORDER=
